<svg width="161" height="161" viewBox="0 0 161 161" fill="none" xmlns="http://www.w3.org/2000/svg">
<g clip-path="url(#clip0)">
<path fill-rule="evenodd" clip-rule="evenodd" d="M44.012 120.925C53.4181 126.355 65.4456 123.133 70.8762 113.726L97.2926 67.972C102.723 58.5659 99.5005 46.5384 90.0944 41.1078C80.6883 35.6771 68.6608 38.8999 63.2302 48.306L50.022 71.1832L36.8138 94.0605C31.3832 103.467 34.606 115.494 44.012 120.925ZM116.511 120.926C107.105 126.356 95.0773 123.133 89.6467 113.727C84.2161 104.321 87.4389 92.2937 96.845 86.8631C106.251 81.4325 118.279 84.6552 123.709 94.0613C129.14 103.467 125.917 115.495 116.511 120.926Z" fill="white"/>
</g>
<defs>
<clipPath id="clip0">
<rect width="92.8903" height="85.3586" fill="white" transform="translate(33.8164 38.3373)"/>
</clipPath>
</defs>
</svg>
