<?xml version="1.0" encoding="iso-8859-1"?>
<!-- Generator: Adobe Illustrator 16.0.0, SVG Export Plug-In . SVG Version: 6.00 Build 0)  -->
<!-- <!DOCTYPE svg PUBLIC "-//W3C//DTD SVG 1.1//EN" "http://www.w3.org/Graphics/SVG/1.1/DTD/svg11.dtd"> -->
<svg version="1.1" id="Capa_1" xmlns="http://www.w3.org/2000/svg" xmlns:xlink="http://www.w3.org/1999/xlink" x="0px" y="0px"
	 viewBox="0 0 426 426" style="enable-background:new 0 0 426 426;"
	 xml:space="preserve">
<g>
	<g>
		<path d="M425.393,205.3C425.354,205.195,425.375,205.253,425.393,205.3L425.393,205.3z" fill="black"/>
		<path d="M425.403,205.333c-1.389-3.895-3.212-7.675-5.085-11.356c-2.529-4.97-5.249-9.845-8.191-14.583
			c-2.929-4.715-5.964-9.403-9.254-13.878c-13.897-18.908-29.971-36.023-48.347-50.655c-19.465-15.499-41.243-28.139-64.521-36.966
			c-5.844-2.215-11.778-4.19-17.788-5.903c-5.96-1.699-11.993-3.004-18.055-4.28c-5.507-1.159-11.168-2.042-16.77-2.592
			c-4.479-0.44-8.977-0.965-13.479-1.104c-7.158-0.222-14.249-0.425-21.414-0.067c-12.877,0.642-25.698,2.438-38.254,5.367
			c-24.403,5.693-47.711,15.6-68.986,28.809c-21.177,13.148-40.348,29.514-56.814,48.218
			c-10.606,12.048-20.058,25.041-28.099,38.932c-2.9,5.011-5.577,10.163-7.927,15.456c-1.629,3.671-3.343,7.362-1.845,11.414
			c1.786,4.832,7.149,7.557,12.105,6.154c2.851-0.807,5.238-3.1,7.563-4.85c13.234-9.959,26.938-19.358,40.945-28.192
			c20.817-13.13,42.582-24.942,65.493-34.007c15.428-6.104,31.404-10.931,47.712-13.968c6.822,3.821,11.44,11.106,11.44,19.481
			c0,12.334-9.999,22.333-22.334,22.333c-6.481,0-12.315-2.764-16.396-7.174c-1.169,4.982-1.807,10.169-1.807,15.507
			c0,37.373,30.297,67.669,67.669,67.669c37.373,0,67.669-30.296,67.669-67.669c0-18.875-7.735-35.938-20.201-48.212
			c15.909,3.625,31.416,8.827,46.455,15.25c22.864,9.766,44.576,22.116,65.383,35.683c11.301,7.368,22.42,15.069,33.217,23.162
			c3.367,2.522,6.614,5.641,11.146,5.343C423.158,218.228,427.584,211.478,425.403,205.333z" fill="black"/>
		<path d="M48.446,252.549c0,0,0.012,0.033,0.021,0.057C48.462,252.594,48.458,252.583,48.446,252.549z" fill="black"/>
		<path d="M368.134,242.505c-2.208,0.625-4.058,2.401-5.857,3.756c-10.251,7.716-20.866,14.994-31.715,21.838
			c-16.125,10.171-32.984,19.32-50.73,26.343c-18.051,7.142-37.065,12.046-56.479,13.284c-11.719,0.749-23.572,0.198-35.167-1.647
			c-16.534-2.631-32.552-7.559-47.938-14.131c-17.712-7.564-34.528-17.13-50.646-27.64c-8.752-5.707-17.365-11.673-25.728-17.939
			c-2.608-1.955-5.124-4.369-8.634-4.139c-5.052,0.332-8.48,5.56-6.792,10.319c1.076,3.018,2.488,5.945,3.938,8.796
			c1.96,3.85,4.066,7.625,6.345,11.296c2.269,3.652,4.62,7.283,7.168,10.75c10.766,14.646,23.215,27.901,37.449,39.235
			c15.078,12.005,31.946,21.796,49.978,28.633c4.526,1.717,9.124,3.247,13.778,4.573c4.616,1.316,9.29,2.327,13.985,3.315
			c4.265,0.896,8.65,1.582,12.989,2.007c3.471,0.341,6.952,0.748,10.439,0.855c5.546,0.172,11.038,0.328,16.586,0.052
			c9.975-0.497,19.905-1.888,29.631-4.157c18.902-4.41,36.956-12.083,53.436-22.314c16.403-10.185,31.253-22.861,44.009-37.35
			c8.215-9.332,15.537-19.396,21.765-30.156c2.247-3.882,4.32-7.872,6.14-11.972c1.263-2.844,2.591-5.703,1.431-8.841
			C376.127,243.53,371.973,241.419,368.134,242.505z" fill="black"/>
		<path d="M48.466,252.606C48.475,252.63,48.473,252.626,48.466,252.606L48.466,252.606z" fill="black"/>
	</g>
</g>
<g>
</g>
<g>
</g>
<g>
</g>
<g>
</g>
<g>
</g>
<g>
</g>
<g>
</g>
<g>
</g>
<g>
</g>
<g>
</g>
<g>
</g>
<g>
</g>
<g>
</g>
<g>
</g>
<g>
</g>
</svg>
