<?xml version="1.0" encoding="UTF-8" standalone="no"?>
<!-- Created with Inkscape (http://www.inkscape.org/) -->

<svg
   xmlns:dc="http://purl.org/dc/elements/1.1/"
   xmlns:cc="http://creativecommons.org/ns#"
   xmlns:rdf="http://www.w3.org/1999/02/22-rdf-syntax-ns#"
   xmlns:svg="http://www.w3.org/2000/svg"
   xmlns="http://www.w3.org/2000/svg"
   xmlns:sodipodi="http://sodipodi.sourceforge.net/DTD/sodipodi-0.dtd"
   xmlns:inkscape="http://www.inkscape.org/namespaces/inkscape"
   version="1.1"
   id="svg1965"
   xml:space="preserve"
   width="800"
   height="800"
   viewBox="0 0 800 800"
   sodipodi:docname="domino-vector-publicdomainvectors.org.svg"
   inkscape:version="0.92.4 (5da689c313, 2019-01-14)"><metadata
     id="metadata1971"><rdf:RDF><cc:Work
         rdf:about=""><dc:format>image/svg+xml</dc:format><dc:type
           rdf:resource="http://purl.org/dc/dcmitype/StillImage" /><dc:title></dc:title></cc:Work></rdf:RDF></metadata><defs
     id="defs1969"><clipPath
       clipPathUnits="userSpaceOnUse"
       id="clipPath1981"><path
         d="M 0,600 H 600 V 0 H 0 Z"
         id="path1979"
         inkscape:connector-curvature="0" /></clipPath></defs><sodipodi:namedview
     pagecolor="#ffffff"
     bordercolor="#666666"
     borderopacity="1"
     objecttolerance="10"
     gridtolerance="10"
     guidetolerance="10"
     inkscape:pageopacity="0"
     inkscape:pageshadow="2"
     inkscape:window-width="1920"
     inkscape:window-height="1018"
     id="namedview1967"
     showgrid="false"
     inkscape:zoom="0.94869318"
     inkscape:cx="488.13559"
     inkscape:cy="400"
     inkscape:window-x="-8"
     inkscape:window-y="-8"
     inkscape:window-maximized="1"
     inkscape:current-layer="g1973" /><g
     id="g1973"
     inkscape:groupmode="layer"
     inkscape:label="domino-vector-publicdomainvectors.org"
     transform="matrix(1.3333333,0,0,-1.3333333,0,800)"><g
       id="g1975"><g
         id="g1977"
         clip-path="url(#clipPath1981)"><path
           d="m 558.075,209.26 c -1.787,-0.027 -2.997,-1.354 -2.697,-2.968 0.299,-1.614 1.995,-2.903 3.782,-2.877 1.789,0.025 2.998,1.356 2.699,2.97 -0.299,1.614 -1.995,2.901 -3.784,2.875 m -0.088,9.342 c 6.204,0.09 12.081,-4.42 13.128,-10.071 1.049,-5.65 -3.128,-10.304 -9.33,-10.393 -6.202,-0.09 -12.083,4.419 -13.131,10.07 -1.048,5.649 3.129,10.304 9.333,10.394 m -67.935,-13.251 c -0.3,1.615 -1.995,2.901 -3.781,2.876 -1.789,-0.027 -2.999,-1.355 -2.699,-2.969 0.3,-1.614 1.994,-2.903 3.782,-2.876 1.789,0.025 2.997,1.356 2.698,2.969 m 12.944,2.201 c 1.047,-5.653 -3.127,-10.307 -9.33,-10.395 -6.204,-0.09 -12.081,4.42 -13.13,10.07 -1.047,5.653 3.131,10.304 9.334,10.395 6.203,0.09 12.078,-4.422 13.126,-10.07 m 48.85,52.797 c -0.3,1.615 -1.994,2.901 -3.782,2.876 -1.789,-0.027 -2.999,-1.355 -2.699,-2.969 0.3,-1.614 1.994,-2.902 3.782,-2.875 1.789,0.025 2.998,1.356 2.699,2.968 m -0.074,-8.245 c -6.204,-0.089 -12.083,4.417 -13.129,10.069 -1.05,5.649 3.128,10.305 9.332,10.393 6.202,0.089 12.08,-4.419 13.129,-10.07 1.049,-5.649 -3.13,-10.305 -9.332,-10.392 m -30.823,-19.253 c -0.301,1.612 -1.994,2.901 -3.782,2.875 -1.787,-0.025 -2.997,-1.355 -2.698,-2.97 0.299,-1.616 1.995,-2.902 3.781,-2.876 1.789,0.028 2.998,1.355 2.699,2.971 m 12.582,2.195 c 1.047,-5.651 -3.129,-10.305 -9.335,-10.393 -6.196,-0.09 -12.078,4.417 -13.126,10.069 -1.048,5.651 3.13,10.304 9.33,10.393 6.205,0.089 12.08,-4.419 13.131,-10.069 m -53.492,24.269 c -0.301,1.614 -1.994,2.902 -3.782,2.876 -1.787,-0.026 -2.998,-1.354 -2.698,-2.967 0.298,-1.615 1.996,-2.902 3.784,-2.877 1.786,0.027 2.996,1.355 2.696,2.968 m 3.614,-8.192 c -6.204,-0.09 -12.08,4.417 -13.129,10.069 -1.049,5.652 3.127,10.304 9.331,10.395 6.205,0.089 12.079,-4.421 13.129,-10.071 1.047,-5.651 -3.128,-10.304 -9.331,-10.393 m 55.899,57.974 c -1.787,-0.027 -2.997,-1.355 -2.698,-2.97 0.299,-1.614 1.996,-2.902 3.782,-2.879 1.789,0.028 2.998,1.357 2.699,2.972 -0.301,1.614 -1.995,2.903 -3.783,2.877 m -0.087,9.342 c 6.201,0.088 12.079,-4.42 13.127,-10.071 1.048,-5.653 -3.129,-10.305 -9.331,-10.395 -6.203,-0.09 -12.082,4.421 -13.13,10.07 -1.05,5.651 3.129,10.305 9.334,10.396 m -67.939,-13.252 c -0.298,1.614 -1.994,2.901 -3.78,2.875 -1.788,-0.025 -2.998,-1.354 -2.699,-2.968 0.3,-1.615 1.996,-2.902 3.784,-2.877 1.786,0.025 2.995,1.354 2.695,2.97 m -0.182,12.271 c 6.204,0.088 12.079,-4.421 13.129,-10.072 1.047,-5.65 -3.128,-10.304 -9.33,-10.395 -6.205,-0.089 -12.082,4.421 -13.13,10.071 -1.048,5.651 3.129,10.305 9.331,10.396 m 55.496,42.635 c 0.302,-1.615 1.995,-2.903 3.783,-2.876 1.788,0.025 2.997,1.355 2.698,2.969 -0.299,1.613 -1.995,2.9 -3.781,2.875 -1.79,-0.026 -2.997,-1.355 -2.7,-2.968 m -6.724,1.915 c -1.047,5.653 3.131,10.305 9.335,10.393 6.202,0.091 12.079,-4.419 13.127,-10.069 1.05,-5.651 -3.128,-10.304 -9.33,-10.393 -6.203,-0.091 -12.084,4.418 -13.132,10.069 m -23.671,-32.112 c 0.299,-1.615 1.993,-2.902 3.782,-2.876 1.789,0.025 2.998,1.354 2.699,2.968 -0.301,1.613 -1.994,2.901 -3.783,2.876 -1.788,-0.027 -2.997,-1.357 -2.698,-2.968 m -3.9,4.662 c -1.048,5.65 3.132,10.303 9.33,10.392 6.207,0.091 12.082,-4.418 13.132,-10.069 1.048,-5.65 -3.128,-10.304 -9.334,-10.393 -6.197,-0.089 -12.077,4.42 -13.128,10.07 m -37.512,24.501 c 0.301,-1.614 1.995,-2.901 3.784,-2.876 1.787,0.025 2.997,1.355 2.697,2.97 -0.299,1.613 -1.994,2.899 -3.782,2.873 -1.787,-0.025 -2.998,-1.353 -2.699,-2.967 m 6.299,12.363 c 6.204,0.089 12.078,-4.419 13.127,-10.071 1.047,-5.65 -3.126,-10.305 -9.33,-10.393 -6.202,-0.09 -12.08,4.419 -13.13,10.07 -1.048,5.651 3.129,10.305 9.333,10.394 m -4.887,-86.829 c 0.028,-0.139 0.08,-0.267 0.121,-0.402 l 93.051,1.34 c 0.824,0.011 1.523,-0.138 1.593,-0.51 0.07,-0.373 -0.57,-0.542 -1.397,-0.552 l -92.761,-1.337 c 0.923,-1.383 2.69,-2.224 4.573,-2.197 l 98.733,1.421 c 2.478,0.039 4.211,1.554 3.797,3.788 -0.414,2.235 -2.701,3.695 -5.176,3.658 l -98.736,-1.421 c -2.477,-0.035 -4.211,-1.553 -3.798,-3.788 m -47.835,64.128 c -1.7,0 -3.082,-1.379 -3.082,-3.081 0,-1.702 1.382,-3.081 3.082,-3.081 1.703,0 3.081,1.379 3.081,3.081 0,1.702 -1.378,3.081 -3.081,3.081 m 11.019,-24.577 h -28.382 c -0.786,0 -1.423,-0.272 -1.423,-0.665 0,-0.395 0.637,-0.666 1.423,-0.666 h 28.583 z m 18.181,-101.171 -7.567,41.917 c -1.23,1.757 -1.958,3.801 -1.958,6.118 0,0.935 0.129,1.769 0.352,2.635 l -8.403,46.507 h -30.711 c -2.356,0 -4.267,1.637 -4.267,3.994 0,2.358 1.911,3.994 4.267,3.994 h 0.01 29.287 l -3.168,17.661 c -0.939,-4.989 -5.273,-8.694 -10.486,-8.694 -5.898,0 -10.681,4.831 -10.681,10.788 0,5.959 4.781,10.79 10.679,10.79 3.862,0 7.229,-2.077 9.104,-5.179 l -4.539,25.152 c -0.529,2.842 3.125,9.012 6.415,9.059 l 15.327,0.189 c 0.779,0.218 1.556,0.338 2.409,0.35 l 58.272,0.841 v 37.552 H 444.411 396.93 381.662 V 222.973 Z m -3.49,158.886 18.197,-98.07 c -0.034,-0.057 -0.055,-0.118 -0.042,-0.19 0.011,-0.061 0.064,-0.106 0.107,-0.156 l 17.657,-95.168 116.764,1.682 -35.92,193.583 z M 358.076,233.622 c -0.141,1.332 -0.376,1.644 -0.376,2.202 v 7.663 c -2.662,1.814 -4.36,4.864 -4.36,8.324 0,3.46 1.698,6.508 4.36,8.324 v 36.461 c -2.662,1.813 -4.36,4.864 -4.36,8.322 0,3.461 1.698,6.511 4.36,8.323 v 12.235 h -8.858 c -2.199,0 -3.985,1.126 -3.985,3.328 0,2.2 1.786,3.327 3.985,3.327 h 8.858 v 9.608 c -2.662,1.813 -4.36,4.863 -4.36,8.324 0,3.46 1.698,6.51 4.36,8.321 v 36.465 c -2.662,1.812 -4.36,4.862 -4.36,8.323 0,3.46 1.698,6.511 4.36,8.322 v 12.49 h -8.279 -9.025 V 233.622 Z m -38.202,10.649 c -0.1,0 -0.781,0.903 -0.781,1.377 v 6.227 c -3.993,0.932 -7.239,4.658 -7.239,9.122 0,4.463 3.246,8.191 7.239,9.122 v 31.072 c -3.993,0.931 -7.239,4.657 -7.239,9.121 0,4.463 3.246,8.191 7.239,9.122 v 8.704 h -10.935 c -2.04,0 -3.695,1.285 -3.695,3.328 0,2.042 1.655,3.328 3.695,3.328 h 10.935 v 8.316 c -3.993,0.931 -7.239,4.657 -7.239,9.121 0,4.463 3.246,8.192 7.239,9.122 v 31.073 c -3.993,0.93 -7.239,4.658 -7.239,9.121 0,4.464 3.246,8.191 7.239,9.122 v 10.654 H 300.456 V 244.271 Z m -18.04,-3.993 c -0.973,0 -1.979,0.171 -2.871,0.512 0.424,-0.352 1.046,-0.512 1.784,-0.512 z m -21.376,14.643 c 0,0 0.03,0.521 0.03,0.552 v 6.102 c 0,-0.008 -0.315,-0.023 -0.468,-0.023 -4.718,0 -8.558,3.863 -8.558,8.63 0,4.766 3.835,8.632 8.553,8.632 0.153,0 0.473,-0.015 0.473,-0.024 v 28.307 c 0,-0.008 -0.315,-0.023 -0.468,-0.023 -4.718,0 -8.558,3.865 -8.558,8.631 0,4.767 3.835,8.631 8.553,8.631 0.153,0 0.473,-0.014 0.473,-0.022 v 7.817 h -13.009 c -1.885,0 -3.416,1.442 -3.416,3.328 0,1.887 1.531,3.328 3.416,3.328 h 13.009 v 7.004 c 0,-0.006 -0.315,-0.022 -0.468,-0.022 -4.718,0 -8.558,3.864 -8.558,8.631 0,4.766 3.835,8.631 8.553,8.631 0.153,0 0.473,-0.015 0.473,-0.023 v 28.306 c 0,-0.007 -0.315,-0.022 -0.468,-0.022 -4.718,0 -8.558,3.864 -8.558,8.632 0,4.767 3.835,8.631 8.553,8.631 0.153,0 0.473,-0.015 0.473,-0.024 V 418.66 H 261.851 V 254.921 Z m -38.575,10.65 v 7.033 c -1.331,-0.724 -2.4,-1.148 -3.882,-1.148 -4.327,0 -7.67,3.542 -7.67,7.913 0,4.368 3.398,7.912 7.725,7.912 1.48,0 2.496,-0.424 3.827,-1.146 v 28.198 c -1.331,-0.723 -2.4,-1.147 -3.882,-1.147 -4.327,0 -7.67,3.542 -7.67,7.913 0,4.369 3.398,7.913 7.725,7.913 1.48,0 2.496,-0.425 3.827,-1.148 v 8.261 h -15.085 c -1.727,0 -3.13,0.934 -3.13,2.662 0,1.73 1.403,2.663 3.13,2.663 h 15.085 v 8.354 c -1.331,-0.723 -2.4,-1.148 -3.882,-1.148 -4.327,0 -7.67,3.544 -7.67,7.913 0,4.37 3.398,7.912 7.725,7.912 1.48,0 2.496,-0.424 3.827,-1.147 v 28.2 c -1.331,-0.724 -2.4,-1.147 -3.882,-1.147 -4.327,0 -7.67,3.544 -7.67,7.912 0,4.37 3.398,7.912 7.725,7.912 1.48,0 2.496,-0.424 3.827,-1.147 v 9.603 h -21.3 V 265.571 Z m -38.605,10.65 v 9.443 c -1.331,-2.532 -3.682,-4.304 -6.596,-4.304 -3.934,0 -7.2,3.222 -7.2,7.195 0,3.971 3.24,7.192 7.172,7.192 2.916,0 5.293,-1.769 6.624,-4.302 v 32.157 c -1.331,-2.534 -3.682,-4.304 -6.596,-4.304 -3.934,0 -7.2,3.222 -7.2,7.192 0,3.973 3.24,7.194 7.172,7.194 2.916,0 5.293,-1.77 6.624,-4.303 v 10.738 h -17.163 c -1.569,0 -2.843,1.756 -2.843,3.328 0,1.572 1.274,3.328 2.843,3.328 h 17.163 v 9.073 c -1.331,-2.533 -3.682,-4.302 -6.596,-4.302 -3.934,0 -7.2,3.221 -7.2,7.193 0,3.97 3.24,7.192 7.172,7.192 2.916,0 5.293,-1.77 6.624,-4.303 v 32.158 c -1.331,-2.534 -3.682,-4.305 -6.596,-4.305 -3.934,0 -7.2,3.222 -7.2,7.194 0,3.972 3.24,7.193 7.172,7.193 2.916,0 5.293,-1.771 6.624,-4.303 v 12.439 H 180.647 V 276.221 Z m -38.605,10.649 v 57.242 h -19.237 c -1.415,0 -2.561,1.246 -2.561,2.663 0,1.414 1.146,2.662 2.561,2.662 h 19.237 v 22.194 c -2.662,0.592 -5.149,3.208 -5.149,6.348 0,3.14 2.487,5.756 5.149,6.346 v 25.016 H 140.711 V 286.87 Z m -37.274,10.65 v 20.879 c -1.331,1.001 -1.369,2.286 -1.369,3.704 0,1.418 0.038,2.699 1.369,3.702 v 22.301 h -22.646 c -1.256,0 -2.275,1.405 -2.275,2.663 0,1.258 1.019,2.662 2.275,2.662 h 22.646 v 53.248 H 100.775 V 297.52 Z m -26.539,-2.892 c -0.629,0 -1.242,0.121 -1.762,0.358 0.248,-0.232 0.606,-0.358 1.046,-0.358 z M 87.463,404.017 H 60.838 v -6.813 -0.516 -72.9 -0.711 -14.907 h 26.625 v 16.228 c 0,-0.013 -0.229,-0.042 -0.366,-0.042 -2.752,0 -4.954,2.254 -4.954,5.035 0,2.781 2.212,5.035 4.963,5.035 0.138,0 0.357,-0.03 0.357,-0.04 V 352.1 h -23.39 c -1.099,0 -1.991,0.896 -1.991,1.997 0,1.1 0.892,1.996 1.991,1.996 h 23.39 z M 60.667,305.843 c -0.676,0 -1.448,0.119 -2.089,0.383 0.308,-0.302 0.935,-0.383 1.448,-0.383 z m -0.652,99.816 c 0.028,0 0.057,0.001 0.086,0.001 h -0.075 c -0.004,0 -0.009,-0.001 -0.011,-0.001 M 48.858,400.023 H 20.902 v -2.819 -3.472 -64.297 -6.358 -4.258 h 27.956 v 21.026 0.553 15.695 h -12.34 -0.075 -9.682 -0.144 -3.226 c -0.942,0 -1.706,1.053 -1.706,1.997 0,0.943 0.764,1.997 1.706,1.997 h 1.833 23.634 v 26.087 0.151 z M 592.289,186.897 c 0.18,-0.296 0.142,-0.482 -0.198,-0.529 l -0.791,-0.476 c -0.529,-0.432 -1.148,-0.801 -1.811,-1.097 l -8.091,-4.913 c -10.078,-1.832 -82.33,-1.333 -88.254,-1.529 -8.138,-0.27 -42.349,0.253 -42.349,0.253 -2.926,1.703 -5.956,5.518 -6.484,8.362 l -5.49,30.679 h -56.597 c -1.156,0 -2.334,0.054 -3.366,0.544 0.214,-0.188 0.464,-0.55 0.738,-0.67 -2.7,0.248 -5.714,1.225 -7.563,2.595 l -9.501,6.845 c -0.518,0.385 -1.017,1.337 -1.494,1.337 h -19.01 c -1.656,0 -3.182,0.655 -4.213,1.638 0.373,-0.81 1.351,-1.186 2.359,-1.342 -2.66,0.126 -5.79,1.168 -7.655,2.553 l -8.652,6.589 c -0.758,0.564 -1.456,1.211 -2.069,2.542 h -19.231 l -0.777,-0.424 c -2.688,-0.352 -6.644,0.339 -8.789,1.936 l -8.358,5.953 c -0.661,0.491 -1.307,1.854 -1.894,1.854 H 261.64 c -1.136,0 -2.204,0.569 -3.046,1.277 0.071,-0.091 0.142,-0.059 0.221,-0.14 -1.959,0.294 -4.01,1.104 -5.328,2.087 l -7.507,5.698 c -0.876,0.655 -1.686,1.727 -2.327,3.058 h -22.209 c -0.665,0 -1.354,-0.131 -2.004,0.139 -0.177,0.075 -0.355,-0.15 -0.523,-0.059 -1.813,0.262 -3.723,0.947 -4.945,1.861 l -7.217,5.111 c -1.071,0.804 -2.153,2.267 -2.871,3.599 H 181.25 c -0.873,0 -1.7,0.219 -2.381,0.671 0.096,-0.109 0.203,-0.258 0.32,-0.346 -1.717,0.213 -3.57,0.787 -4.733,1.662 l -6.365,4.523 c -1.255,0.946 -2.425,2.808 -2.916,4.139 h -24.12 c -0.887,0 -1.86,0.549 -2.643,1.018 0.232,-0.228 0.543,-0.127 0.878,-0.253 -1.571,0.178 -3.283,0.796 -4.351,1.602 l -5.511,4.271 c -1.446,1.094 -2.562,2.68 -2.618,5.342 h -25.796 l -0.192,-0.137 c -1.654,-0.221 -4.098,0.303 -5.419,1.305 l -5.241,3.768 c -1.318,1.003 -2.699,3.165 -2.699,4.806 v 0.908 H 62.377 l -1.754,-0.065 c -1.446,-0.194 -3.592,0.537 -4.748,1.421 l -2.094,1.567 -2.38,1.757 c -0.003,10e-4 -0.149,0.007 -0.154,0.012 -1.146,0.889 -2.389,2.785 -2.389,4.224 v 1.734 H 20.472 c -0.361,0 -0.709,0.009 -1.036,0.197 -0.212,0.122 -0.404,0.16 -0.582,0.34 -0.912,0.171 -1.829,0.535 -2.437,1.007 l -4.055,2.879 c -0.988,0.766 -2.109,2.416 -2.109,3.667 v 41.029 41.028 c 0,1.253 1.642,1.706 2.894,1.706 h 22.232 13.479 v 1.176 c 0,1.447 1.804,1.487 3.263,1.487 h 35.342 v 1.395 c 0,1.641 1.964,2.599 3.633,2.599 h 36.303 v 0.285 c 0,1.834 0.794,3.708 2.67,3.708 h 34.882 c 0.109,1.331 2.066,2.663 4.092,2.663 h 34.115 c 0.45,1.331 2.796,3.993 4.861,3.993 h 34.477 c 0.549,1.331 2.399,2.662 4.496,2.662 h 33.816 c 0.837,2.663 3.026,3.994 5.161,3.994 h 34.293 c 0.849,1.331 2.603,1.331 4.681,1.331 h 33.152 c 0.779,2.663 3.238,3.994 5.823,3.994 h 111.13 c 2.9,0 14.848,-2.005 18.611,-3.718 2.283,-0.551 3.819,-2.198 3.819,-4.646 v -39.758 l 41.531,0.596 c 3.916,0.246 8.34,0.405 10.997,0.135 3.09,-0.134 6.112,-1.632 6.63,-4.418 l 36.359,-195.962 c 0.176,-0.946 -0.119,-1.842 -0.706,-2.629 m -180.598,53.475 c 0,1.701 -1.378,3.08 -3.081,3.08 -1.7,0 -3.082,-1.379 -3.082,-3.08 0,-1.702 1.382,-3.083 3.082,-3.083 1.703,0 3.081,1.381 3.081,3.083 m 4.155,2.252 c 0,-5.957 -4.78,-10.789 -10.679,-10.789 -5.897,0 -10.679,4.832 -10.679,10.789 0,5.959 4.782,10.789 10.679,10.789 5.899,0 10.679,-4.83 10.679,-10.789 m -4.155,54.649 c 0,1.702 -1.378,3.081 -3.081,3.081 -1.7,0 -3.082,-1.379 -3.082,-3.081 0,-1.701 1.382,-3.081 3.082,-3.081 1.703,0 3.081,1.38 3.081,3.081 m 4.155,2.253 c 0,-5.958 -4.78,-10.789 -10.679,-10.789 -5.897,0 -10.679,4.831 -10.679,10.789 0,5.958 4.782,10.79 10.679,10.79 5.899,0 10.679,-4.832 10.679,-10.79 m 57.967,103.016 c 0,-1.701 1.381,-3.082 3.08,-3.082 1.701,0 3.083,1.381 3.083,3.082 0,1.703 -1.382,3.082 -3.083,3.082 -1.699,0 -3.08,-1.379 -3.08,-3.082 m -14.549,2.253 c 0,5.959 4.782,10.789 10.68,10.789 5.899,0 10.678,-4.83 10.678,-10.789 0,-5.958 -4.779,-10.788 -10.678,-10.788 -5.898,0 -10.68,4.83 -10.68,10.788 m -53.736,-2.253 c 0,-1.701 1.382,-3.082 3.082,-3.082 1.703,0 3.081,1.381 3.081,3.082 0,1.703 -1.378,3.082 -3.081,3.082 -1.7,0 -3.082,-1.379 -3.082,-3.082 m -11.04,2.253 c 0,5.959 4.782,10.789 10.679,10.789 5.899,0 10.679,-4.83 10.679,-10.789 0,-5.958 -4.78,-10.788 -10.679,-10.788 -5.897,0 -10.679,4.83 -10.679,10.788 M 154.824,304.214 c -3.541,0 -6.409,-2.898 -6.409,-6.473 0,-3.575 2.868,-6.474 6.409,-6.474 3.539,0 6.406,2.899 6.406,6.474 0,3.575 -2.867,6.473 -6.406,6.473 m 0,34.143 c -3.541,0 -6.409,-2.899 -6.409,-6.472 0,-3.575 2.868,-6.476 6.409,-6.476 3.539,0 6.406,2.901 6.406,6.476 0,3.573 -2.867,6.472 -6.406,6.472 m 0,16.077 c 3.539,0 6.406,2.898 6.406,6.473 0,3.576 -2.867,6.472 -6.406,6.472 -3.541,0 -6.409,-2.896 -6.409,-6.472 0,-3.575 2.868,-6.473 6.409,-6.473 m 0,34.144 c 3.539,0 6.406,2.898 6.406,6.473 0,3.575 -2.867,6.474 -6.406,6.474 -3.541,0 -6.409,-2.899 -6.409,-6.474 0,-3.575 2.868,-6.473 6.409,-6.473 M 113.099,312.68 c -3.146,0 -5.696,-2.576 -5.696,-5.755 0,-3.178 2.55,-5.755 5.696,-5.755 3.146,0 5.696,2.577 5.696,5.755 0,3.179 -2.55,5.755 -5.696,5.755 m 0,30.351 c -3.146,0 -5.696,-2.576 -5.696,-5.754 0,-3.178 2.55,-5.755 5.696,-5.755 3.146,0 5.696,2.577 5.696,5.755 0,3.178 -2.55,5.754 -5.696,5.754 m 0,14.29 c 3.146,0 5.696,2.577 5.696,5.755 0,3.177 -2.55,5.755 -5.696,5.755 -3.146,0 -5.696,-2.578 -5.696,-5.755 0,-3.178 2.55,-5.755 5.696,-5.755 m 1.934,20.93 c 0,-3.177 2.551,-5.753 5.694,-5.753 3.149,0 5.697,2.576 5.697,5.753 0,3.178 -2.548,5.755 -5.697,5.755 -3.143,0 -5.694,-2.577 -5.694,-5.755 m -1.934,9.421 c 3.146,0 5.696,2.576 5.696,5.756 0,3.176 -2.55,5.754 -5.696,5.754 -3.146,0 -5.696,-2.578 -5.696,-5.754 0,-3.18 2.55,-5.756 5.696,-5.756 M 71.376,311.078 c 2.751,0 4.982,2.254 4.982,5.036 0,2.78 -2.231,5.034 -4.982,5.034 -2.754,0 -4.986,-2.254 -4.986,-5.034 0,-2.782 2.232,-5.036 4.986,-5.036 m 0,26.557 c 2.751,0 4.982,2.255 4.982,5.034 0,2.783 -2.231,5.036 -4.982,5.036 -2.754,0 -4.986,-2.253 -4.986,-5.036 0,-2.779 2.232,-5.034 4.986,-5.034 m 0,22.575 c 2.751,0 4.982,2.253 4.982,5.034 0,2.782 -2.231,5.036 -4.982,5.036 -2.754,0 -4.986,-2.254 -4.986,-5.036 0,-2.781 2.232,-5.034 4.986,-5.034 m -1.094,18.314 c 0,-2.78 2.232,-5.036 4.984,-5.036 2.754,0 4.984,2.256 4.984,5.036 0,2.78 -2.23,5.035 -4.984,5.035 -2.752,0 -4.984,-2.255 -4.984,-5.035 m 1.094,8.243 c 2.751,0 4.982,2.255 4.982,5.036 0,2.781 -2.231,5.036 -4.982,5.036 -2.754,0 -4.986,-2.255 -4.986,-5.036 0,-2.781 2.232,-5.036 4.986,-5.036 M 29.652,320.981 c 2.359,0 4.27,1.934 4.27,4.318 0,2.382 -1.911,4.316 -4.27,4.316 -2.361,0 -4.274,-1.934 -4.274,-4.316 0,-2.384 1.913,-4.318 4.274,-4.318 m 13.519,11.384 c 2.361,0 4.274,1.931 4.274,4.315 0,2.384 -1.913,4.316 -4.274,4.316 -2.358,0 -4.271,-1.932 -4.271,-4.316 0,-2.384 1.913,-4.315 4.271,-4.315 m -13.519,11.381 c 2.359,0 4.27,1.935 4.27,4.317 0,2.383 -1.911,4.316 -4.27,4.316 -2.361,0 -4.274,-1.933 -4.274,-4.316 0,-2.382 1.913,-4.317 4.274,-4.317 m 0,19.353 c 2.359,0 4.27,1.931 4.27,4.315 0,2.383 -1.911,4.315 -4.27,4.315 -2.361,0 -4.274,-1.932 -4.274,-4.315 0,-2.384 1.913,-4.315 4.274,-4.315 m 0.152,20.013 c -2.36,0 -4.272,-1.932 -4.272,-4.316 0,-2.384 1.912,-4.317 4.272,-4.317 2.362,0 4.273,1.933 4.273,4.317 0,2.384 -1.911,4.316 -4.273,4.316 m -4.426,7.067 c 0,2.383 1.913,4.316 4.274,4.316 2.359,0 4.27,-1.933 4.27,-4.316 0,-2.384 -1.911,-4.317 -4.27,-4.317 -2.361,0 -4.274,1.933 -4.274,4.317"
           style="fill:#000000;fill-opacity:1;fill-rule:nonzero;stroke:none"
           id="path1983"
           inkscape:connector-curvature="0" /></g></g></g></svg>